<?xml version="1.0" encoding="utf-8"?>
<!-- Generator: Adobe Illustrator 26.0.1, SVG Export Plug-In . SVG Version: 6.00 Build 0)  -->
<svg version="1.1" baseProfile="tiny" id="PubNub_secure_global_data_stream_network_and_easy_to_use_API_for_realtime_Apps"
	 xmlns="http://www.w3.org/2000/svg" xmlns:xlink="http://www.w3.org/1999/xlink" x="300px" y="67px" viewBox="0 0 120.8 27.09"
	 overflow="visible" xml:space="preserve">
<g id="PubNub_x5F_Logo">
	<path fill="#EF3A43" d="M48.88,7.34c-1.98-0.07-3.95,0.25-5.8,0.95L42.49,8.5V0h-3.82v0.37c0.01,8.25,0.01,16.51,0,24.76
		c-0.03,0.23,0.11,0.45,0.34,0.5c1.88,0.68,3.84,1.13,5.83,1.33l1.14,0.12h2.21c0.07-0.02,0.14-0.04,0.21-0.06
		c0.47-0.06,0.94-0.1,1.41-0.19c3.04-0.58,5.03-2.33,5.86-5.33c0.44-1.69,0.63-3.43,0.57-5.17c0-1.44-0.25-2.86-0.74-4.21
		C54.4,9.18,52.04,7.48,48.88,7.34z M51.92,21.06c-0.44,1.55-1.38,2.64-2.99,3.06c-0.84,0.2-1.71,0.25-2.56,0.17
		c-1.22-0.09-2.41-0.35-3.56-0.77c-0.2-0.04-0.34-0.23-0.31-0.43c0-1.96,0-3.91,0-5.86l0,0c0-1.96,0.01-3.91,0-5.86
		c-0.03-0.19,0.1-0.38,0.29-0.42c1.48-0.58,3.06-0.87,4.65-0.86c1.4,0.02,2.68,0.4,3.64,1.49c0.63,0.74,1.03,1.65,1.16,2.61
		C52.64,16.47,52.53,18.82,51.92,21.06z"/>
	<path fill="#EF3A43" d="M120.11,12.24c-1.12-3.02-3.47-4.75-6.69-4.89c-1.94-0.08-3.87,0.23-5.69,0.91
		c-0.21,0.08-0.43,0.15-0.69,0.24V0h-3.81v0.34c0.01,8.27,0.01,16.53,0,24.79c-0.03,0.23,0.12,0.45,0.35,0.5
		c1.88,0.68,3.84,1.13,5.83,1.33l1.15,0.12l2.13,0c0.08-0.02,0.16-0.04,0.25-0.06c0.57-0.09,1.15-0.13,1.72-0.25
		c2.71-0.6,4.56-2.17,5.44-4.84c0.45-1.47,0.69-3,0.71-4.54C120.86,15.65,120.73,13.9,120.11,12.24z M116.54,20.85
		c-0.24,0.93-0.65,1.78-1.4,2.42c-0.8,0.69-1.76,0.96-2.78,1.02c-1.73,0.08-3.47-0.2-5.09-0.81c-0.19-0.07-0.21-0.18-0.21-0.35
		c0-1.98,0-3.95,0-5.92h-0.01c0-1.96,0-3.91,0-5.86c-0.03-0.18,0.09-0.35,0.27-0.39c1.49-0.59,3.08-0.88,4.68-0.86
		c1.46,0.02,2.77,0.43,3.74,1.61c0.59,0.76,0.96,1.67,1.08,2.62C117.18,16.5,117.08,18.72,116.54,20.85z"/>
	<path fill="#EF3A43" d="M12.76,2.11c-1.28-0.38-2.61-0.57-3.95-0.55C6,1.55,0,1.56,0,1.56v25.05h3.83V15.57H4.2
		c1.6,0,3.2,0.02,4.79,0c1.24,0.01,2.47-0.19,3.64-0.58c2.09-0.73,3.47-2.11,3.95-4.32c0.25-1.23,0.3-2.5,0.14-3.75
		C16.45,4.51,15.09,2.84,12.76,2.11z M12.75,10.31c-0.34,1.3-1.25,1.98-2.5,2.26c-0.6,0.14-1.22,0.22-1.84,0.24
		c-1.47,0.03-2.94,0.01-4.41,0.01c-0.05,0-0.09-0.01-0.17-0.01L3.83,4.34c0.11-0.01,0.22-0.01,0.32-0.01c1.39,0,2.79-0.04,4.18,0.01
		c0.78,0.03,1.56,0.14,2.32,0.32c1.26,0.3,2,1.16,2.23,2.43C13.07,8.16,13.03,9.26,12.75,10.31z"/>
	<path fill="#EF3A43" d="M31.78,8.15c-0.01,5.05-0.01,10.1,0,15.16c0,0,0,0.01,0,0.01c0.03,0.21-0.12,0.4-0.33,0.43
		c-1.74,0.51-3.56,0.68-5.36,0.49c-1.47-0.18-2.48-1-2.93-2.45c-0.25-0.88-0.36-1.78-0.34-2.69c0-3.65,0-7.3,0-10.94V7.77H19v0.36
		c0,4.06,0,8.13,0,12.19c0,0.49,0.01,0.99,0.06,1.48c0.17,1.72,0.94,3.09,2.43,4.01c0.96,0.57,2.02,0.94,3.12,1.09
		c0.46,0.07,0.93,0.12,1.4,0.18h2.19c0.07-0.02,0.15-0.04,0.22-0.05c2.3-0.17,4.59-0.56,6.81-1.17c0.01,0,0.02,0,0.03,0
		c0.22-0.04,0.36-0.25,0.32-0.47c0-5.75,0-11.5,0-17.24V7.77h-3.82V8.15z"/>
	<path fill="#EF3A43" d="M96.35,7.77v0.39c-0.01,5.02-0.01,10.05,0,15.07c0,0.01,0,0.02,0,0.03c0.03,0.26-0.16,0.5-0.42,0.53
		c-1.71,0.48-3.49,0.63-5.26,0.46c-1.44-0.17-2.45-0.95-2.92-2.37c-0.26-0.83-0.38-1.7-0.37-2.57c0-3.72,0-7.43,0-11.15V7.77h-3.82
		v0.36c0,4.11,0,8.23,0,12.34c0,0.45,0.02,0.91,0.06,1.36c0.19,1.73,0.96,3.1,2.48,4.01c0.95,0.55,1.99,0.91,3.08,1.06
		c0.46,0.07,0.93,0.12,1.4,0.18l2.19,0c0.08-0.02,0.17-0.04,0.25-0.05c2.31-0.17,4.61-0.57,6.84-1.19c0.01,0,0.01,0,0.02,0
		c0.19-0.03,0.31-0.21,0.28-0.4c0-5.79,0-11.57,0-17.36c0-0.1-0.02-0.2-0.02-0.31H96.35z"/>
	<path fill="#EF3A43" d="M76.53,23.41c-0.08-0.05-0.14-0.12-0.18-0.21c-3.71-7.13-7.42-14.27-11.12-21.4
		c-0.06-0.16-0.23-0.26-0.4-0.24c-1.74,0-3.48,0-5.23,0c-0.09,0-0.19,0.01-0.27,0.01V26.6h3.33V4.86c0.08,0.05,0.14,0.11,0.18,0.2
		l6.38,12.29c1.56,3,3.11,6,4.66,9.01c0.07,0.18,0.26,0.29,0.45,0.26c0.67,0,1.34,0,2,0h3.54l0.01-25.03h-3.36V23.41z"/>
</g>
</svg>
